HIERARCHY
ROOT hip
{
  OFFSET 0.0 0.0 0.0
  CHANNELS 6 Xposition Yposition Zposition Zrotation Yrotation Xrotation
  JOINT abdomen
  {
    OFFSET 0.0 20.6881 -0.73152
    CHANNELS 3 Zrotation Xrotation Yrotation
    JOINT chest
    {
      OFFSET 0.0 11.7043 -0.48768
      CHANNELS 3 Zrotation Xrotation Yrotation
      JOINT neck
      {
        OFFSET 0.0 22.1894 -2.19456
        CHANNELS 3 Zrotation Xrotation Yrotation
        JOINT head
        {
          OFFSET -0.24384 7.07133 1.2192
          CHANNELS 3 Zrotation Xrotation Yrotation
          JOINT leftEye
          {
            OFFSET 4.14528 8.04674 8.04672
            CHANNELS 3 Zrotation Xrotation Yrotation
            End Site
            {
              OFFSET 1.0 0.0 0.0
            }
          }
          JOINT rightEye
          {
            OFFSET -3.6576 8.04674 8.04672
            CHANNELS 3 Zrotation Xrotation Yrotation
            End Site
            {
              OFFSET 1.0 0.0 0.0
            }
          }
        }
      }
      JOINT rCollar
      {
        OFFSET -2.68224 19.2634 -4.8768
        CHANNELS 3 Zrotation Xrotation Yrotation
        JOINT rShldr
        {
          OFFSET -8.77824 -1.95073 1.46304
          CHANNELS 3 Zrotation Xrotation Yrotation
          JOINT rForeArm
          {
            OFFSET -28.1742 -1.7115 0.48768
            CHANNELS 3 Zrotation Xrotation Yrotation
            JOINT rHand
            {
              OFFSET -22.5879 0.773209 7.07136
              CHANNELS 3 Zrotation Xrotation Yrotation
              JOINT rThumb1
              {
                OFFSET -1.2192 -0.487915 3.41376
                CHANNELS 3 Zrotation Xrotation Yrotation
                JOINT rThumb2
                {
                  OFFSET -3.37035 -0.52449 3.41376
                  CHANNELS 3 Zrotation Xrotation Yrotation
                  End Site
                  {
                    OFFSET -1.78271 -1.18214 1.43049
                  }
                }
              }
              JOINT rIndex1
              {
                OFFSET -7.75947 0.938293 5.60832
                CHANNELS 3 Zrotation Xrotation Yrotation
                JOINT rIndex2
                {
                  OFFSET -2.54057 -0.884171 1.56538
                  CHANNELS 3 Zrotation Xrotation Yrotation
                  End Site
                  {
                    OFFSET -1.62519 -0.234802 1.16502
                  }
                }
              }
              JOINT rMid1
              {
                OFFSET -8.24714 1.18213 3.41376
                CHANNELS 3 Zrotation Xrotation Yrotation
                JOINT rMid2
                {
                  OFFSET -3.10165 -0.590103 1.0647
                  CHANNELS 3 Zrotation Xrotation Yrotation
                  End Site
                  {
                    OFFSET -2.48547 -0.328903 0.83742
                  }
                }
              }
              JOINT rRing1
              {
                OFFSET -8.82822 0.546677 1.51678
                CHANNELS 3 Zrotation Xrotation Yrotation
                JOINT rRing2
                {
                  OFFSET -2.60934 -0.819778 -0.0198488
                  CHANNELS 3 Zrotation Xrotation Yrotation
                  End Site
                  {
                    OFFSET -2.33842 -0.294052 0.168128
                  }
                }
              }
              JOINT rPinky1
              {
                OFFSET -8.27202 -0.0477905 -0.4584
                CHANNELS 3 Zrotation Xrotation Yrotation
                JOINT rPinky2
                {
                  OFFSET -1.82734 -0.647385 -0.700984
                  CHANNELS 3 Zrotation Xrotation Yrotation
                  End Site
                  {
                    OFFSET -1.69225 -0.51767 -0.607171
                  }
                }
              }
            }
          }
        }
      }
      JOINT lCollar
      {
        OFFSET 2.68224 19.2634 -4.8768
        CHANNELS 3 Zrotation Xrotation Yrotation
        JOINT lShldr
        {
          OFFSET 8.77824 -1.95073 1.46304
          CHANNELS 3 Zrotation Xrotation Yrotation
          JOINT lForeArm
          {
            OFFSET 28.1742 -1.7115 0.48768
            CHANNELS 3 Zrotation Xrotation Yrotation
            JOINT lHand
            {
              OFFSET 22.5879 0.773209 7.07136
              CHANNELS 3 Zrotation Xrotation Yrotation
              JOINT lThumb1
              {
                OFFSET 1.2192 -0.487915 3.41376
                CHANNELS 3 Zrotation Xrotation Yrotation
                JOINT lThumb2
                {
                  OFFSET 3.37035 -0.52449 3.41376
                  CHANNELS 3 Zrotation Xrotation Yrotation
                  End Site
                  {
                    OFFSET 1.78271 -1.18214 1.43049
                  }
                }
              }
              JOINT lIndex1
              {
                OFFSET 7.75947 0.938293 5.60832
                CHANNELS 3 Zrotation Xrotation Yrotation
                JOINT lIndex2
                {
                  OFFSET 2.54057 -0.884171 1.56538
                  CHANNELS 3 Zrotation Xrotation Yrotation
                  End Site
                  {
                    OFFSET 1.62519 -0.234802 1.16502
                  }
                }
              }
              JOINT lMid1
              {
                OFFSET 8.24714 1.18213 3.41376
                CHANNELS 3 Zrotation Xrotation Yrotation
                JOINT lMid2
                {
                  OFFSET 3.10165 -0.590103 1.0647
                  CHANNELS 3 Zrotation Xrotation Yrotation
                  End Site
                  {
                    OFFSET 2.48547 -0.328903 0.83742
                  }
                }
              }
              JOINT lRing1
              {
                OFFSET 8.82822 0.546677 1.51678
                CHANNELS 3 Zrotation Xrotation Yrotation
                JOINT lRing2
                {
                  OFFSET 2.60934 -0.819778 -0.0198488
                  CHANNELS 3 Zrotation Xrotation Yrotation
                  End Site
                  {
                    OFFSET 2.33842 -0.294052 0.168128
                  }
                }
              }
              JOINT lPinky1
              {
                OFFSET 8.27202 -0.0477905 -0.4584
                CHANNELS 3 Zrotation Xrotation Yrotation
                JOINT lPinky2
                {
                  OFFSET 1.82734 -0.647385 -0.700984
                  CHANNELS 3 Zrotation Xrotation Yrotation
                  End Site
                  {
                    OFFSET 1.69225 -0.51767 -0.607171
                  }
                }
              }
            }
          }
        }
      }
    }
  }
  JOINT rButtock
  {
    OFFSET -8.77824 4.35084 1.2192
    CHANNELS 3 Zrotation Xrotation Yrotation
    JOINT rThigh
    {
      OFFSET 0.0 -1.70687 -2.19456
      CHANNELS 3 Zrotation Xrotation Yrotation
      JOINT rShin
      {
        OFFSET 0.0 -36.8199 0.73152
        CHANNELS 3 Zrotation Xrotation Yrotation
        JOINT rFoot
        {
          OFFSET 0.73152 -45.1104 -5.12064
          CHANNELS 3 Zrotation Xrotation Yrotation
          End Site
          {
            OFFSET -1.1221 -3.69964 12.103
          }
        }
      }
    }
  }
  JOINT lButtock
  {
    OFFSET 8.77824 4.35084 1.2192
    CHANNELS 3 Zrotation Xrotation Yrotation
    JOINT lThigh
    {
      OFFSET 0.0 -1.70687 -2.19456
      CHANNELS 3 Zrotation Xrotation Yrotation
      JOINT lShin
      {
        OFFSET 0.0 -36.8199 0.73152
        CHANNELS 3 Zrotation Xrotation Yrotation
        JOINT lFoot
        {
          OFFSET -0.73152 -45.1104 -5.12064
          CHANNELS 3 Zrotation Xrotation Yrotation
          End Site
          {
            OFFSET 1.1221 -3.69964 12.103
          }
        }
      }
    }
  }
}
MOTION
Frames: 10
Frame Time: 0.00833333
11.0358 81.3832 37.8337 6.9535 11.2796 8.7602 -9.14858 6.64315 -6.38257 -1.63283 -0.127386 -1.93094 3.18715 10.1816 0.490017 2.24178 -26.383 1.17516 -0.0 0.0 0.0 -0.0 0.0 0.0 0.0 0.0 0.0 0.0 0.0 0.0 0.0 0.0 0.0 -0.0602962 7.07663 0.999493 -1.48692e-09 1.81198e-09 -2.59371e-10 -2.5732e-09 3.13353e-09 -4.42162e-10 -1.48692e-09 1.81198e-09 -2.5938e-10 7.73091 5.47488 0.417314 -1.48693e-09 1.81198e-09 -2.59371e-10 2.90554 0.965183 0.102902 -1.48692e-09 1.81198e-09 -2.59371e-10 10.2786 0.731801 0.0259123 -1.48693e-09 1.81198e-09 -2.59365e-10 2.22167 -0.733487 -0.20892 0.0 0.0 0.0 0.0 0.0 0.0 0.0 0.0 0.0 1.10317 -29.1872 4.46794 9.23047e-10 2.82034e-09 -6.85285e-10 1.59975e-09 4.83044e-09 -1.16162e-09 9.23047e-10 2.82034e-09 -6.8528e-10 -7.73091 5.47488 -0.417314 9.23049e-10 2.82035e-09 -6.85294e-10 -2.90554 0.965183 -0.102902 9.2304e-10 2.82034e-09 -6.85289e-10 -10.2786 0.731801 -0.0259123 9.23055e-10 2.82034e-09 -6.85299e-10 -2.22167 -0.733487 0.20892 -2.03217e-16 0.0 -3.88251e-19 -4.7497 -47.4938 13.6542 -0.651764 51.4341 1.01495 -0.922291 -0.626296 -5.28716 2.03217e-16 0.0 3.88251e-19 -0.352778 -24.4741 17.9248 0.399654 44.2744 -0.996367 3.59958 -18.6133 8.36492
10.950999999999999 81.4341 38.645199999999996 6.6351 11.5055 8.5392 -8.75421 6.48551 -6.33376 -1.54792 -0.0480224 -1.90477 3.20013 10.2424 0.468358 2.13169 -26.4838 1.11062 -0.0 0.0 0.0 -0.0 0.0 0.0 0.0 0.0 0.0 0.0 0.0 0.0 0.0 0.0 0.0 -0.048268 6.31886 0.891588 -2.66008e-09 3.05925e-09 -3.14876e-10 -4.60214e-09 5.29106e-09 -5.31109e-10 -2.66007e-09 3.05925e-09 -3.14885e-10 7.73091 5.47488 0.417314 -2.66008e-09 3.05925e-09 -3.14876e-10 2.90554 0.965183 0.102902 -2.66007e-09 3.05925e-09 -3.14875e-10 10.2786 0.731801 0.0259123 -2.66008e-09 3.05925e-09 -3.14871e-10 2.22167 -0.733487 -0.20892 0.0 0.0 0.0 0.0 0.0 0.0 0.0 0.0 0.0 0.78837 -24.9889 3.73457 1.23571e-09 5.05974e-09 -1.19916e-09 2.14767e-09 8.68389e-09 -2.045e-09 1.23571e-09 5.05974e-09 -1.19916e-09 -7.73091 5.47488 -0.417314 1.23572e-09 5.05975e-09 -1.19917e-09 -2.90554 0.965183 -0.102902 1.23571e-09 5.05974e-09 -1.19917e-09 -10.2786 0.731801 -0.0259123 1.23573e-09 5.05974e-09 -1.19918e-09 -2.22167 -0.733487 0.20892 -2.03217e-16 0.0 -3.88251e-19 -4.27089 -46.0848 13.5654 -0.626103 50.7689 0.990279 -1.20332 -1.72898 -6.48269 2.03217e-16 0.0 3.88251e-19 0.438451 -24.6424 18.0947 0.434197 45.5908 -1.02952 3.58867 -17.8681 8.51183
10.859399999999999 81.5047 39.4541 6.299 11.771 8.3203 -8.34828 6.32681 -6.21805 -1.45326 0.0163087 -1.85976 3.21318 10.283 0.428076 2.05357 -26.5221 1.0137 -0.0 0.0 0.0 -0.0 0.0 0.0 0.0 0.0 0.0 0.0 0.0 0.0 0.0 0.0 0.0 -0.03968 5.67623 0.800388 -3.44017e-09 3.85909e-09 -3.66699e-10 -5.95128e-09 6.67462e-09 -6.16357e-10 -3.44017e-09 3.85909e-09 -3.66708e-10 7.73091 5.47488 0.417314 -3.44018e-09 3.85909e-09 -3.66699e-10 2.90554 0.965183 0.102902 -3.44016e-09 3.85909e-09 -3.66696e-10 10.2786 0.731801 0.0259123 -3.44018e-09 3.85909e-09 -3.66693e-10 2.22167 -0.733487 -0.20892 0.0 0.0 0.0 0.0 0.0 0.0 0.0 0.0 0.0 0.643025 -22.1643 3.28207 1.46065e-09 6.80877e-09 -1.56265e-09 2.5419e-09 1.16963e-08 -2.66969e-09 1.46066e-09 6.80877e-09 -1.56265e-09 -7.73091 5.47488 -0.417314 1.46066e-09 6.80877e-09 -1.56266e-09 -2.90554 0.965183 -0.102902 1.46065e-09 6.80877e-09 -1.56266e-09 -10.2786 0.731801 -0.0259123 1.46067e-09 6.80877e-09 -1.56266e-09 -2.22167 -0.733487 0.20892 -2.03217e-16 0.0 -3.88251e-19 -3.88183 -44.7218 13.2063 -0.599271 50.0474 0.963372 -1.48351 -2.70836 -7.50932 2.03217e-16 0.0 3.88251e-19 1.39176 -25.0154 18.4437 0.479291 47.1351 -1.06955 3.46724 -16.7789 8.50513
10.755799999999999 81.5907 40.260999999999996 5.9352 12.0552 8.1071 -7.95841 6.1671 -6.03227 -1.34049 0.0676922 -1.79507 3.22965 10.301 0.362089 2.02913 -26.4813 0.874444 -0.0 0.0 0.0 -0.0 0.0 0.0 0.0 0.0 0.0 0.0 0.0 0.0 0.0 0.0 0.0 -0.0329051 5.14958 0.725745 -3.75329e-09 4.10223e-09 -4.351e-10 -6.49283e-09 7.09525e-09 -7.33785e-10 -3.75328e-09 4.10223e-09 -4.35111e-10 7.73091 5.47488 0.417314 -3.75329e-09 4.10224e-09 -4.351e-10 2.90554 0.965183 0.102902 -3.75328e-09 4.10224e-09 -4.35098e-10 10.2786 0.731801 0.0259123 -3.75329e-09 4.10224e-09 -4.35092e-10 2.22167 -0.733487 -0.20892 0.0 0.0 0.0 0.0 0.0 0.0 0.0 0.0 0.0 0.602407 -21.0515 3.113 1.61552e-09 8.26372e-09 -1.76699e-09 2.81291e-09 1.42084e-08 -3.01987e-09 1.61552e-09 8.26372e-09 -1.76699e-09 -7.73091 5.47488 -0.417314 1.61553e-09 8.26372e-09 -1.767e-09 -2.90554 0.965183 -0.102902 1.61552e-09 8.26372e-09 -1.76699e-09 -10.2786 0.731801 -0.0259123 1.61553e-09 8.26372e-09 -1.767e-09 -2.22167 -0.733487 0.20892 -2.03217e-16 0.0 -3.88251e-19 -3.60868 -43.3903 12.4877 -0.570726 49.2451 0.932726 -1.74275 -3.52971 -8.37425 2.03217e-16 0.0 3.88251e-19 2.51571 -25.5942 18.9827 0.537144 48.9366 -1.11745 3.21946 -15.3343 8.28343
10.637500000000001 81.6848 41.0631 5.5307 12.3332 7.9052 -7.56172 6.01207 -5.78162 -1.21179 0.110491 -1.71192 3.24887 10.3091 0.267849 2.0505 -26.4026 0.687924 -0.0 0.0 0.0 -0.0 0.0 0.0 0.0 0.0 0.0 0.0 0.0 0.0 0.0 0.0 0.0 -0.0269434 4.67314 0.658268 -3.8276e-09 4.04946e-09 -4.78405e-10 -6.62114e-09 7.00405e-09 -8.09477e-10 -3.8276e-09 4.04946e-09 -4.7842e-10 7.73091 5.47488 0.417314 -3.82761e-09 4.04946e-09 -4.78407e-10 2.90554 0.965183 0.102902 -3.82759e-09 4.04946e-09 -4.78404e-10 10.2786 0.731801 0.0259123 -3.82761e-09 4.04946e-09 -4.78395e-10 2.22167 -0.733487 -0.20892 0.0 0.0 0.0 0.0 0.0 0.0 0.0 0.0 0.0 0.604956 -21.0134 3.10899 1.68122e-09 9.7023e-09 -1.8978e-09 2.92952e-09 1.66988e-08 -3.24492e-09 1.68121e-09 9.7023e-09 -1.8978e-09 -7.73091 5.47488 -0.417314 1.68122e-09 9.70229e-09 -1.89781e-09 -2.90554 0.965183 -0.102902 1.68121e-09 9.70229e-09 -1.8978e-09 -10.2786 0.731801 -0.0259123 1.68123e-09 9.70229e-09 -1.89782e-09 -2.22167 -0.733487 0.20892 -2.03217e-16 0.0 -3.88251e-19 -3.38481 -42.0503 11.4619 -0.540645 48.3523 0.89872 -1.9941 -4.26524 -9.15038 2.03217e-16 0.0 3.88251e-19 3.81078 -26.3494 19.6845 0.608801 50.9716 -1.17517 2.88891 -13.5841 7.90083
10.4977 81.7779 41.8604 5.0642 12.5801 7.7148 -7.11104 5.85689 -5.46955 -1.08436 0.136744 -1.61131 3.26371 10.303 0.163216 2.07629 -26.292 0.480913 -0.0 0.0 0.0 -0.0 0.0 0.0 0.0 0.0 0.0 0.0 0.0 0.0 0.0 0.0 0.0 -0.0225594 4.29441 0.604682 -3.6583e-09 3.75102e-09 -4.82282e-10 -6.32796e-09 6.48788e-09 -8.1814e-10 -3.6583e-09 3.75102e-09 -4.823e-10 7.73091 5.47488 0.417314 -3.65831e-09 3.75102e-09 -4.82285e-10 2.90554 0.965183 0.102902 -3.65829e-09 3.75102e-09 -4.82282e-10 10.2786 0.731801 0.0259123 -3.65831e-09 3.75102e-09 -4.8227e-10 2.22167 -0.733487 -0.20892 0.0 0.0 0.0 0.0 0.0 0.0 0.0 0.0 0.0 0.638879 -21.7822 3.22846 1.63235e-09 1.04746e-08 -1.91058e-09 2.84656e-09 1.80421e-08 -3.26841e-09 1.63234e-09 1.04746e-08 -1.91057e-09 -7.73091 5.47488 -0.417314 1.63235e-09 1.04746e-08 -1.91058e-09 -2.90554 0.965183 -0.102902 1.63234e-09 1.04746e-08 -1.91058e-09 -10.2786 0.731801 -0.0259123 1.63236e-09 1.04746e-08 -1.91059e-09 -2.22167 -0.733487 0.20892 -2.03217e-16 0.0 -3.88251e-19 -3.1045 -40.7408 10.3514 -0.511192 47.4313 0.86538 -2.22162 -4.944 -9.76473 2.03217e-16 0.0 3.88251e-19 5.30096 -27.2825 20.5711 0.696548 53.1919 -1.24708 2.52725 -11.5101 7.4805
10.3328 81.8648 42.6509 4.5118 12.7761 7.5336 -6.55911 5.69673 -5.09954 -0.975338 0.138486 -1.49421 3.26701 10.2782 0.0660601 2.06489 -26.1559 0.280089 -0.0 0.0 0.0 -0.0 0.0 0.0 0.0 0.0 0.0 0.0 0.0 0.0 0.0 0.0 0.0 -0.0202685 4.06092 0.571693 -3.24057e-09 3.25716e-09 -4.324e-10 -5.60507e-09 5.63358e-09 -7.34478e-10 -3.24057e-09 3.25716e-09 -4.32419e-10 7.73091 5.47488 0.417314 -3.24057e-09 3.25716e-09 -4.32403e-10 2.90554 0.965183 0.102902 -3.24056e-09 3.25716e-09 -4.324e-10 10.2786 0.731801 0.0259123 -3.24057e-09 3.25716e-09 -4.32387e-10 2.22167 -0.733487 -0.20892 0.0 0.0 0.0 0.0 0.0 0.0 0.0 0.0 0.0 0.701866 -23.0898 3.43501 1.44353e-09 9.93061e-09 -1.76081e-09 2.51885e-09 1.71128e-08 -3.01389e-09 1.44352e-09 9.93061e-09 -1.7608e-09 -7.73091 5.47488 -0.417314 1.44353e-09 9.93059e-09 -1.76081e-09 -2.90554 0.965183 -0.102902 1.44352e-09 9.93059e-09 -1.76081e-09 -10.2786 0.731801 -0.0259123 1.44354e-09 9.93061e-09 -1.76082e-09 -2.22167 -0.733487 0.20892 -2.03217e-16 0.0 -3.88251e-19 -2.69385 -39.5112 9.3573 -0.48396 46.5443 0.836242 -2.40803 -5.59579 -10.1442 2.03217e-16 0.0 3.88251e-19 7.01605 -28.392 21.6678 0.803832 55.549 -1.33852 2.17134 -9.09649 7.14215
10.142000000000001 81.9442 43.4368 3.8616 12.9115 7.3536 -5.87617 5.51729 -4.64269 -0.88664 0.108658 -1.35207 3.25055 10.2303 -0.0236287 2.01761 -25.9809 0.0858724 -0.0 0.0 0.0 -0.0 0.0 0.0 0.0 0.0 0.0 0.0 0.0 0.0 0.0 0.0 0.0 -0.0199093 3.98245 0.560647 -2.36064e-09 2.37486e-09 -2.88224e-10 -4.0827e-09 4.10715e-09 -4.8913e-10 -2.36064e-09 2.37486e-09 -2.88242e-10 7.73091 5.47488 0.417314 -2.36064e-09 2.37485e-09 -2.88227e-10 2.90554 0.965183 0.102902 -2.36063e-09 2.37485e-09 -2.88226e-10 10.2786 0.731801 0.0259123 -2.36064e-09 2.37486e-09 -2.88213e-10 2.22167 -0.733487 -0.20892 0.0 0.0 0.0 0.0 0.0 0.0 0.0 0.0 0.0 0.840482 -25.4785 3.82657 9.99902e-10 7.13157e-09 -1.30485e-09 1.74531e-09 1.22884e-08 -2.23565e-09 9.99894e-10 7.13157e-09 -1.30484e-09 -7.73091 5.47488 -0.417314 9.99902e-10 7.13156e-09 -1.30485e-09 -2.90554 0.965183 -0.102902 9.99891e-10 7.13155e-09 -1.30485e-09 -10.2786 0.731801 -0.0259123 9.99911e-10 7.13157e-09 -1.30486e-09 -2.22167 -0.733487 0.20892 -2.03217e-16 0.0 -3.88251e-19 -2.1384 -38.402 8.48876 -0.458712 45.7025 0.811449 -2.52885 -6.21294 -10.2325 2.03217e-16 0.0 3.88251e-19 9.07545 -29.7239 23.046 0.940217 58.1247 -1.4601 1.76959 -6.12883 6.81124
9.9276 82.017 44.219899999999996 3.1088 12.982 7.1658 -5.09151 5.32511 -4.10723 -0.809693 0.0531447 -1.1873 3.22009 10.1627 -0.11376 1.95325 -25.7688 -0.1134 -0.0 0.0 0.0 -0.0 0.0 0.0 0.0 0.0 0.0 0.0 0.0 0.0 0.0 0.0 0.0 -0.0207116 4.03463 0.568044 -1.09191e-09 1.14611e-09 -6.96372e-11 -1.88776e-09 1.98132e-09 -1.16458e-10 -1.09191e-09 1.14612e-09 -6.96524e-11 7.73091 5.47488 0.417314 -1.09191e-09 1.14611e-09 -6.96398e-11 2.90554 0.965183 0.102902 -1.0919e-09 1.14611e-09 -6.96385e-11 10.2786 0.731801 0.0259123 -1.09191e-09 1.14611e-09 -6.96279e-11 2.22167 -0.733487 -0.20892 0.0 0.0 0.0 0.0 0.0 0.0 0.0 0.0 0.0 1.10156 -28.882 4.42451 3.51044e-10 2.67926e-09 -6.10363e-10 6.13045e-10 4.60995e-09 -1.04955e-09 3.51037e-10 2.67926e-09 -6.10353e-10 -7.73091 5.47488 -0.417314 3.51045e-10 2.67925e-09 -6.10365e-10 -2.90554 0.965183 -0.102902 3.51031e-10 2.67925e-09 -6.10361e-10 -10.2786 0.731801 -0.0259123 3.51053e-10 2.67926e-09 -6.10375e-10 -2.22167 -0.733487 0.20892 -2.03217e-16 0.0 -3.88251e-19 -1.48952 -37.3799 7.64104 -0.434468 44.8746 0.789074 -2.58487 -6.78771 -10.0792 2.03217e-16 0.0 3.88251e-19 11.4858 -31.2352 24.7098 1.11562 60.9131 -1.62017 1.33885 -2.68399 6.47165
9.696499999999999 82.0849 45.0012 2.2597 13.0021 6.961 -4.2477 5.14685 -3.55223 -0.745893 -0.0166003 -1.01734 3.18949 10.0827 -0.198322 1.85589 -25.5482 -0.309467 -0.0 0.0 0.0 -0.0 0.0 0.0 0.0 0.0 0.0 0.0 0.0 0.0 0.0 0.0 0.0 -0.0224376 4.21376 0.593344 1.39711e-10 -2.62509e-11 1.47073e-10 2.42961e-10 -4.69623e-11 2.53245e-10 1.3971e-10 -2.62463e-11 1.47061e-10 7.73091 5.47488 0.417314 1.39708e-10 -2.62483e-11 1.47071e-10 2.90554 0.965183 0.102902 1.39718e-10 -2.62481e-11 1.47072e-10 10.2786 0.731801 0.0259123 1.39706e-10 -2.62468e-11 1.4708e-10 2.22167 -0.733487 -0.20892 0.0 0.0 0.0 0.0 0.0 0.0 0.0 0.0 0.0 1.4304 -32.1231 5.04806 -2.8182e-10 -1.76527e-09 5.01975e-11 -4.90849e-10 -3.05263e-09 7.8403e-11 -2.81824e-10 -1.76528e-09 5.02032e-11 -7.73091 5.47488 -0.417314 -2.81817e-10 -1.76527e-09 5.01948e-11 -2.90554 0.965183 -0.102902 -2.81832e-10 -1.76528e-09 5.01974e-11 -10.2786 0.731801 -0.0259123 -2.81811e-10 -1.76527e-09 5.01851e-11 -2.22167 -0.733487 0.20892 -2.03217e-16 0.0 -3.88251e-19 -0.791094 -36.3903 6.83234 -0.411315 44.0587 0.769236 -2.59868 -7.3494 -9.77044 2.03217e-16 0.0 3.88251e-19 14.0976 -32.7936 26.578 1.33389 63.7344 -1.82057 0.962811 0.80928 6.3159
